<svg xmlns="http://www.w3.org/2000/svg" viewBox="0 0 400 400" width="100%" height="100%">
  <defs>
    <radialGradient id="bg" cx="50%" cy="50%" r="50%">
      <stop offset="0%" stop-color="#fff7ed"/>
      <stop offset="100%" stop-color="#ffedd5"/>
    </radialGradient>
  </defs>
  <rect width="400" height="400" fill="url(#bg)" rx="20"/>
  <ellipse cx="200" cy="295" rx="130" ry="17" fill="#fed7aa" opacity="0.8"/>
  <path d="M 85,270 C 110,290 280,290 325,260 L 320,275 C 275,298 110,298 85,278 Z" fill="#ea580c"/>
  <path d="M 85,260 C 110,280 280,280 325,250 L 320,265 C 275,288 110,288 85,268 Z" fill="#ffffff" filter="drop-shadow(0 4px 6px rgba(0,0,0,0.1))"/>
  <path d="M 115,145 L 185,150 C 180,185 200,205 240,220 C 280,235 305,240 315,255 C 285,265 205,265 145,265 L 105,230 L 115,145 Z" fill="#1e293b"/>
  <path d="M 125,155 L 155,160 C 150,195 180,215 210,225 L 205,245 C 165,235 135,215 125,155 Z" fill="#f97316"/>
  <path d="M 245,225 C 270,235 295,240 305,250 C 285,258 250,252 240,240 Z" fill="#f97316"/>
  <path d="M 115,145 C 110,135 130,135 140,145 Z" fill="#f97316"/>
  <text x="200" y="340" font-family="'Outfit', sans-serif" font-size="18" font-weight="bold" fill="#0f172a" text-anchor="middle">Performance Basketball Shoes (蝐???</text>
</svg>
